<svg width="19" height="18" viewBox="0 0 19 18" fill="none" xmlns="http://www.w3.org/2000/svg">
<path fill-rule="evenodd" clip-rule="evenodd" d="M16.7731 17.6627C17.2306 18.1124 17.9695 18.1124 18.427 17.6627C18.8844 17.213 18.8844 16.5047 18.427 16.055L14.8143 12.5921C15.8348 11.2767 16.4447 9.64647 16.4447 7.88132C16.4447 3.53029 12.7616 0 8.22234 0C3.68304 0 0 3.53029 0 7.88132C0 12.2324 3.68304 15.7626 8.22234 15.7626C10.0639 15.7626 11.7764 15.178 13.1487 14.1886L16.7731 17.6627ZM2.34589 7.88132C2.34589 4.77826 4.97328 2.24859 8.22233 2.24859C11.4597 2.24859 14.0871 4.76702 14.0871 7.88132C14.0871 10.9844 11.4597 13.5141 8.22233 13.5141C4.98501 13.5028 2.34589 10.9844 2.34589 7.88132Z" fill="#BBBBBC"/>
</svg>
