<svg width="11" height="11" viewBox="0 0 11 11" fill="none" xmlns="http://www.w3.org/2000/svg">
<path fill-rule="evenodd" clip-rule="evenodd" d="M2.53837 10.3125C2.38702 10.3125 2.24257 10.2644 2.12561 10.1819C1.89171 10.0169 1.78851 9.72125 1.86419 9.44625L2.66219 6.53125L0.261246 4.63375C0.0342221 4.455 -0.0552235 4.15938 0.0342104 3.89125C0.123644 3.61625 0.371331 3.43063 0.660271 3.41688L3.74229 3.25875L4.84304 0.44C4.95311 0.171874 5.20762 0 5.49656 0C5.7855 0 6.04005 0.171874 6.15012 0.44L7.25771 3.25875L10.3398 3.41688C10.6287 3.43063 10.8764 3.61625 10.9658 3.89125C11.0552 4.15938 10.9658 4.46188 10.7388 4.63375L8.3378 6.53125L9.13585 9.44625C9.21153 9.72125 9.10833 10.0169 8.87443 10.1819C8.64052 10.3469 8.33093 10.3537 8.08327 10.2025L5.48967 8.5525L2.89612 10.2025C2.80668 10.2781 2.67596 10.3125 2.53837 10.3125Z" fill="#FFC003"/>
</svg>
