<svg width="23" height="14" viewBox="0 0 23 14" fill="none" xmlns="http://www.w3.org/2000/svg">
<path fill-rule="evenodd" clip-rule="evenodd" d="M0 3C0 2.45 0.469251 2 1.04278 2H3.82699C4.03554 2 4.21284 1.87994 4.30669 1.68994C4.80722 0.689941 5.87086 0 7.11177 0C8.35268 0 9.40589 0.689941 9.91685 1.68994C10.0107 1.86994 10.1879 2 10.3965 2H21.8984C22.4719 2 22.9412 2.45 22.9412 3C22.9412 3.55 22.4719 4 21.8984 4H10.3861C10.1776 4 10.0003 4.12006 9.90642 4.31006C9.40588 5.31006 8.34224 6 7.10134 6C5.86043 6 4.80721 5.31006 4.29625 4.31006C4.2024 4.13006 4.02511 4 3.81655 4H1.04278C0.469251 4 0 3.55 0 3ZM21.8984 10H19.1142C18.9056 10 18.7283 9.87994 18.6345 9.68994C18.134 8.68994 17.0703 8 15.8294 8C14.5885 8 13.5353 8.68994 13.0243 9.68994C12.9305 9.86994 12.7532 10 12.5447 10H1.04278C0.469251 10 0 10.45 0 11C0 11.55 0.469251 12 1.04278 12H12.5551C12.7636 12 12.9409 12.1201 13.0348 12.3101C13.5353 13.3101 14.5989 14 15.8398 14C17.0808 14 18.134 13.3101 18.6449 12.3101C18.7388 12.1301 18.9161 12 19.1246 12H21.8984C22.4719 12 22.9412 11.55 22.9412 11C22.9412 10.45 22.4719 10 21.8984 10Z" fill="#BBBBBC"/>
</svg>
