<svg width="20" height="22" viewBox="0 0 20 22" fill="none" xmlns="http://www.w3.org/2000/svg">
<path d="M9.70652 15.4294V14.4294C9.44131 14.4294 9.18695 14.5347 8.99942 14.7222L9.70652 15.4294ZM5.01087 20.125H4.01087C4.01087 20.5295 4.25451 20.8941 4.62819 21.0489C5.00186 21.2037 5.43198 21.1181 5.71798 20.8321L5.01087 20.125ZM5.01087 15.4294H6.01087C6.01087 14.8771 5.56315 14.4294 5.01087 14.4294V15.4294ZM8.875 3.125C9.42729 3.125 9.875 2.67728 9.875 2.125C9.875 1.57272 9.42729 1.125 8.875 1.125V3.125ZM20 10.5625C20 10.0102 19.5523 9.5625 19 9.5625C18.4477 9.5625 18 10.0102 18 10.5625H20ZM8.99942 14.7222L4.30376 19.4179L5.71798 20.8321L10.4136 16.1365L8.99942 14.7222ZM6.01087 20.125V15.4294H4.01087V20.125H6.01087ZM5.01087 14.4294H3.25V16.4294H5.01087V14.4294ZM2 13.1794V4.375H0V13.1794H2ZM16.75 14.4294H9.70652V16.4294H16.75V14.4294ZM3.25 3.125H8.875V1.125H3.25V3.125ZM18 10.5625V13.1794H20V10.5625H18ZM16.75 16.4294C18.5449 16.4294 20 14.9743 20 13.1794H18C18 13.8697 17.4404 14.4294 16.75 14.4294V16.4294ZM2 4.375C2 3.68464 2.55965 3.125 3.25 3.125V1.125C1.45507 1.125 0 2.58008 0 4.375H2ZM3.25 14.4294C2.55964 14.4294 2 13.8697 2 13.1794H0C0 14.9743 1.45508 16.4294 3.25 16.4294V14.4294ZM18 4.375C18 5.68668 16.9367 6.75 15.625 6.75V8.75C18.0412 8.75 20 6.79125 20 4.375H18ZM15.625 6.75C14.3133 6.75 13.25 5.68668 13.25 4.375H11.25C11.25 6.79125 13.2088 8.75 15.625 8.75V6.75ZM13.25 4.375C13.25 3.06332 14.3133 2 15.625 2V0C13.2088 0 11.25 1.95875 11.25 4.375H13.25ZM15.625 2C16.9367 2 18 3.06332 18 4.375H20C20 1.95875 18.0412 0 15.625 0V2Z" fill="white"/>
</svg>
